<svg xmlns="http://www.w3.org/2000/svg" width="16" height="16" viewBox="0 0 260 260"><path d="M252.824 130q0 9.012-6.174 15.186l-108.64 108.64Q131.502 260 122.824 260q-8.51 0-15.02-6.175L95.29 241.31q-6.342-6.342-6.342-15.187 0-8.844 6.34-15.186l48.897-48.896H26.7q-8.677 0-14.1-6.257-5.424-6.258-5.424-15.103v-21.36q0-8.845 5.424-15.103 5.423-6.258 14.1-6.258h117.485L95.29 48.895q-6.342-6.008-6.342-15.02 0-9.01 6.34-15.018L107.806 6.34Q114.145 0 122.825 0q8.844 0 15.185 6.34l108.64 108.64q6.174 5.842 6.174 15.02z" fill="red"/></svg>